<svg width="16" height="16" viewBox="0 0 16 16" fill="none" xmlns="http://www.w3.org/2000/svg">
<path d="M4.48804 3C3.65918 3 2.98804 3.67114 2.98804 4.5C2.98804 4.77614 2.76418 5 2.48804 5C2.21189 5 1.98804 4.77614 1.98804 4.5C1.98804 3.11886 3.10689 2 4.48804 2C4.76418 2 4.98804 2.22386 4.98804 2.5C4.98804 2.77614 4.76418 3 4.48804 3ZM2.98804 11.5C2.98804 11.2239 2.76418 11 2.48804 11C2.21189 11 1.98804 11.2239 1.98804 11.5C1.98804 12.8811 3.10689 14 4.48804 14C4.76418 14 4.98804 13.7761 4.98804 13.5C4.98804 13.2239 4.76418 13 4.48804 13C3.65918 13 2.98804 12.3289 2.98804 11.5ZM13.488 11C13.7642 11 13.988 11.2239 13.988 11.5C13.988 12.8811 12.8692 14 11.488 14C11.2119 14 10.988 13.7761 10.988 13.5C10.988 13.2239 11.2119 13 11.488 13C12.3169 13 12.988 12.3289 12.988 11.5C12.988 11.2239 13.2119 11 13.488 11ZM11.488 2C11.2119 2 10.988 2.22386 10.988 2.5C10.988 2.77614 11.2119 3 11.488 3C12.3169 3 12.988 3.67114 12.988 4.5C12.988 4.77614 13.2119 5 13.488 5C13.7642 5 13.988 4.77614 13.988 4.5C13.988 3.11886 12.8692 2 11.488 2ZM6.48804 2.5C6.48804 2.22386 6.71189 2 6.98804 2H8.98804C9.26418 2 9.48804 2.22386 9.48804 2.5C9.48804 2.77614 9.26418 3 8.98804 3H6.98804C6.71189 3 6.48804 2.77614 6.48804 2.5ZM1.98804 9C1.98804 9.27614 2.21189 9.5 2.48804 9.5C2.76418 9.5 2.98804 9.27614 2.98804 9L2.98804 7C2.98804 6.72386 2.76418 6.5 2.48804 6.5C2.21189 6.5 1.98804 6.72386 1.98804 7V9ZM6.48804 13.5C6.48804 13.2239 6.71189 13 6.98804 13H8.98804C9.26418 13 9.48804 13.2239 9.48804 13.5C9.48804 13.7761 9.26418 14 8.98804 14H6.98804C6.71189 14 6.48804 13.7761 6.48804 13.5ZM12.988 9C12.988 9.27614 13.2119 9.5 13.488 9.5C13.7642 9.5 13.988 9.27614 13.988 9V7C13.988 6.72386 13.7642 6.5 13.488 6.5C13.2119 6.5 12.988 6.72386 12.988 7V9Z" fill="#202020"/>
<path d="M9.13602 7.432C9.05602 7.352 9.01102 7.243 9.01102 7.13V7H7.98802V10H9.96402L10.512 9.452C10.592 9.372 10.7 9.328 10.812 9.328C10.925 9.328 11.033 9.373 11.112 9.452L11.488 9.828C11.568 9.908 11.612 10.016 11.612 10.128V10.13C11.612 10.243 11.567 10.351 11.488 10.43L10.112 11.806C10.032 11.886 9.92402 11.93 9.81202 11.93C9.69902 11.93 9.59102 11.885 9.51202 11.806L9.13702 11.431C9.05702 11.351 9.01202 11.242 9.01202 11.129V10.999H7.84302C7.61702 10.999 7.40002 10.909 7.23902 10.749C7.07902 10.589 6.98902 10.372 6.98902 10.145V6.999H6.21802L5.72802 7.488C5.64802 7.568 5.54002 7.613 5.42702 7.613C5.31402 7.613 5.20602 7.568 5.12602 7.488L4.37602 6.738C4.29602 6.658 4.25102 6.55 4.25102 6.437H4.24902C4.24902 6.324 4.29402 6.216 4.37402 6.136L6.37402 4.136C6.45402 4.056 6.56202 4.011 6.67502 4.011C6.78802 4.011 6.89602 4.056 6.97602 4.136L7.72602 4.886C7.80602 4.966 7.85102 5.074 7.85102 5.187C7.85102 5.3 7.80602 5.408 7.72602 5.488L7.21602 5.999H9.96302L10.511 5.451C10.591 5.371 10.699 5.327 10.811 5.327C10.924 5.327 11.032 5.372 11.111 5.451L11.486 5.826C11.566 5.906 11.611 6.015 11.611 6.128C11.611 6.241 11.566 6.35 11.486 6.43L10.111 7.805C10.031 7.885 9.92302 7.929 9.81102 7.929C9.69802 7.929 9.59002 7.884 9.51102 7.805L9.13602 7.43V7.432Z" fill="#B27C00"/>
</svg>
