<svg width="16" height="16" viewBox="0 0 16 16" fill="none" xmlns="http://www.w3.org/2000/svg">
<path d="M11.854 4.14601L9.354 1.64601C9.159 1.45101 8.842 1.45101 8.647 1.64601C8.452 1.84101 8.452 2.15801 8.647 2.35301L10.293 3.99901H1.5C1.224 3.99901 1 4.22301 1 4.49901C1 4.77501 1.224 4.99901 1.5 4.99901H10.293L8.647 6.64501C8.452 6.84001 8.452 7.15701 8.647 7.35201C8.745 7.45001 8.873 7.49801 9.001 7.49801C9.129 7.49801 9.257 7.44901 9.355 7.35201L11.855 4.85201C12.05 4.65701 12.05 4.34001 11.855 4.14501L11.854 4.14601Z" fill="#006CBF"/>
<path d="M14 1C13.448 1 13 1.448 13 2V14C13 14.552 13.448 15 14 15C14.552 15 15 14.552 15 14V2C15 1.448 14.552 1 14 1Z" fill="#202020"/>
</svg>
