<svg width="16" height="16" viewBox="0 0 16 16" fill="none" xmlns="http://www.w3.org/2000/svg">
<g clip-path="url(#clip0_7199_54155)">
<path fill-rule="evenodd" clip-rule="evenodd" d="M8.0633 11.7436C8.02212 11.6697 7.99994 11.586 7.99994 11.4999V6.99994H5.70694L4.20694 8.49994C4.01941 8.68741 3.7651 8.79273 3.49994 8.79273C3.23478 8.79273 2.98047 8.68741 2.79294 8.49994L1.49994 7.20694C1.31247 7.01941 1.20715 6.7651 1.20715 6.49994C1.20715 6.23478 1.31247 5.98047 1.49994 5.79294L4.79294 2.49994C4.98047 2.31247 5.23478 2.20715 5.49994 2.20715C5.7651 2.20715 6.01941 2.31247 6.20694 2.49994L7.49994 3.79294C7.68741 3.98047 7.79273 4.23478 7.79273 4.49994C7.79273 4.7651 7.68741 5.01941 7.49994 5.20694L6.70694 5.99994H11.2929L11.7929 5.49994C11.9805 5.31247 12.2348 5.20715 12.4999 5.20715C12.7651 5.20715 13.0194 5.31247 13.2069 5.49994L13.9999 6.29294C14.1874 6.48047 14.2927 6.73478 14.2927 6.99994C14.2927 7.2651 14.1874 7.51941 13.9999 7.70694L13.5771 8.12973C13.232 8.04496 12.8713 8 12.5 8C12.4289 8 12.3582 8.00165 12.288 8.00491L13.2929 6.99994L12.4999 6.20694L11.2069 7.49994L11.7665 8.05948C11.3852 8.12199 11.02 8.23243 10.6774 8.38439L10.4999 8.20694C10.3458 8.04983 10.2486 7.84571 10.2238 7.62701C10.1989 7.40832 10.2479 7.1876 10.3629 6.99994H8.99994V9.67141C8.52501 10.2583 8.19473 10.9671 8.0633 11.7436ZM2.20694 6.49994L3.49994 7.79294L6.79294 4.49994L5.49994 3.20694L2.20694 6.49994Z" fill="#B27C00"/>
<path fill-rule="evenodd" clip-rule="evenodd" d="M12.5 16C14.433 16 16 14.433 16 12.5C16 10.567 14.433 9 12.5 9C10.567 9 9 10.567 9 12.5C9 14.433 10.567 16 12.5 16ZM15 12.5C15 13.8807 13.8807 15 12.5 15C11.9905 15 11.5165 14.8476 11.1213 14.5858L14.5858 11.1213C14.8476 11.5165 15 11.9905 15 12.5ZM10.4142 13.8787L13.8787 10.4142C13.4835 10.1524 13.0095 10 12.5 10C11.1193 10 10 11.1193 10 12.5C10 13.0095 10.1524 13.4835 10.4142 13.8787Z" fill="#202020"/>
</g>
<defs>
<clipPath id="clip0_7199_54155">
<rect width="16" height="16" fill="white"/>
</clipPath>
</defs>
</svg>
