<svg width="16" height="16" viewBox="0 0 16 16" fill="none" xmlns="http://www.w3.org/2000/svg">
<g clip-path="url(#clip0_7201_59487)">
<path d="M10 3H6V5.5H5V2.5C5 2.224 5.224 2 5.5 2H10.5C10.776 2 11 2.224 11 2.5V5.5H10V3Z" fill="#202020"/>
<path d="M4 5H12C13.105 5 14 5.895 14 7V8.25606C13.6816 8.14352 13.3467 8.06579 13 8.02746V7C13 6.448 12.552 6 12 6H4C3.448 6 3 6.448 3 7V12C3 12.552 3.448 13 4 13H8.02746C8.06579 13.3467 8.14352 13.6816 8.25606 14H4C2.895 14 2 13.105 2 12V7C2 5.895 2.895 5 4 5Z" fill="#8661C5"/>
<path fill-rule="evenodd" clip-rule="evenodd" d="M12.5 16C14.433 16 16 14.433 16 12.5C16 10.567 14.433 9 12.5 9C10.567 9 9 10.567 9 12.5C9 14.433 10.567 16 12.5 16ZM15 12.5C15 13.8807 13.8807 15 12.5 15C11.9905 15 11.5165 14.8476 11.1213 14.5858L14.5858 11.1213C14.8476 11.5165 15 11.9905 15 12.5ZM10.4142 13.8787L13.8787 10.4142C13.4835 10.1524 13.0095 10 12.5 10C11.1193 10 10 11.1193 10 12.5C10 13.0095 10.1524 13.4835 10.4142 13.8787Z" fill="#202020"/>
</g>
<defs>
<clipPath id="clip0_7201_59487">
<rect width="16" height="16" fill="white"/>
</clipPath>
</defs>
</svg>
