<svg width="16" height="16" viewBox="0 0 16 16" fill="none" xmlns="http://www.w3.org/2000/svg">
<g clip-path="url(#clip0_7201_62973)">
<path d="M15 7.5V3.5C15 3.1 14.84 2.72 14.56 2.44C14.28 2.16 13.9 2 13.5 2H7.5C7.1 2 6.72 2.16 6.44 2.44C6.16 2.72 6 3.1 6 3.5V6H7V3.5C7 3.37 7.05 3.24 7.15 3.15C7.24 3.05 7.37 3 7.5 3H13.5C13.63 3 13.76 3.05 13.85 3.15C13.95 3.24 14 3.37 14 3.5V7.5C14 7.63 13.95 7.76 13.85 7.85C13.76 7.95 13.63 8 13.5 8H12.5H10.95C10.9658 8.08451 10.9789 8.17181 10.9877 8.26043C11.4603 8.09182 11.9694 8 12.5 8C13.2587 8 13.9735 8.18774 14.6005 8.5193C14.864 8.24374 15 7.88094 15 7.5Z" fill="#B27C00"/>
<path d="M10 8.75777V8.5C10 7.673 9.327 7 8.5 7H2.5C1.673 7 1 7.673 1 8.5V12.5C1 13.327 1.673 14 2.5 14H8.25606C8.14352 13.6816 8.06579 13.3467 8.02746 13H2.5C2.225 13 2 12.775 2 12.5V8.5C2 8.225 2.225 8 2.5 8H8.5C8.775 8 9 8.225 9 8.5V9.67133C9.28512 9.31899 9.62236 9.01056 10 8.75777Z" fill="#B27C00"/>
<path d="M13 4.5C13 4.776 12.776 5 12.5 5H8.5C8.224 5 8 4.776 8 4.5C8 4.224 8.224 4 8.5 4H12.5C12.776 4 13 4.224 13 4.5Z" fill="#B27C00"/>
<path d="M12.5 6C12.78 6 13 6.22 13 6.5C13 6.78 12.78 7 12.5 7H10.5C10.04 6.39 9.32 6 8.5 6H12.5Z" fill="#B27C00"/>
<path d="M3.5 9H7.5C7.776 9 8 9.224 8 9.5C8 9.776 7.776 10 7.5 10H3.5C3.224 10 3 9.776 3 9.5C3 9.224 3.224 9 3.5 9Z" fill="#B27C00"/>
<path d="M3.5 11H7.5C7.776 11 8 11.224 8 11.5C8 11.776 7.776 12 7.5 12H3.5C3.224 12 3 11.776 3 11.5C3 11.224 3.224 11 3.5 11Z" fill="#B27C00"/>
<path fill-rule="evenodd" clip-rule="evenodd" d="M12.5 16C14.433 16 16 14.433 16 12.5C16 10.567 14.433 9 12.5 9C10.567 9 9 10.567 9 12.5C9 14.433 10.567 16 12.5 16ZM15 12.5C15 13.8807 13.8807 15 12.5 15C11.9905 15 11.5165 14.8476 11.1213 14.5858L14.5858 11.1213C14.8476 11.5165 15 11.9905 15 12.5ZM10.4142 13.8787L13.8787 10.4142C13.4835 10.1524 13.0095 10 12.5 10C11.1193 10 10 11.1193 10 12.5C10 13.0095 10.1524 13.4835 10.4142 13.8787Z" fill="#202020"/>
</g>
<defs>
<clipPath id="clip0_7201_62973">
<rect width="16" height="16" fill="white"/>
</clipPath>
</defs>
</svg>
