<svg width="16" height="16" viewBox="0 0 16 16" fill="none" xmlns="http://www.w3.org/2000/svg">
<g clip-path="url(#clip0_7201_63166)">
<path fill-rule="evenodd" clip-rule="evenodd" d="M5.87282 1C5.43053 1 5.04078 1.29055 4.91447 1.71442L3.03074 8.03581C2.88743 8.51673 3.24769 9 3.74951 9H5.33338L4.05299 13.3888C3.66907 14.7047 5.37726 15.5898 6.23096 14.5173L8.00487 12.2888C8.09598 10.3171 9.45598 8.67667 11.2871 8.16536L12.8379 6.21709C13.229 5.72572 12.8791 5 12.2511 5H10.2216L11.2149 2.35112C11.4601 1.69737 10.9768 1 10.2786 1H5.87282ZM5.87282 2H10.2786L9.03193 5.32444C8.97435 5.47799 8.99572 5.65001 9.08913 5.7848C9.18254 5.91958 9.3361 6 9.50009 6H11.7326L5.44856 13.8945C5.39618 13.9603 5.34467 13.9826 5.30213 13.9899C5.25354 13.9983 5.19467 13.9902 5.13794 13.9608C5.08121 13.9314 5.04067 13.888 5.0195 13.8434C5.00096 13.8045 4.98941 13.7496 5.01297 13.6688L6.48008 8.64003C6.52416 8.48895 6.49453 8.32593 6.4001 8.20001C6.30568 8.0741 6.15748 8 6.00009 8H4.08487L5.87282 2Z" fill="#B27C00"/>
<path fill-rule="evenodd" clip-rule="evenodd" d="M12.5 16C14.433 16 16 14.433 16 12.5C16 10.567 14.433 9 12.5 9C10.567 9 9 10.567 9 12.5C9 14.433 10.567 16 12.5 16ZM15 12.5C15 13.8807 13.8807 15 12.5 15C11.9905 15 11.5165 14.8476 11.1213 14.5858L14.5858 11.1213C14.8476 11.5165 15 11.9905 15 12.5ZM10.4142 13.8787L13.8787 10.4142C13.4835 10.1524 13.0095 10 12.5 10C11.1193 10 10 11.1193 10 12.5C10 13.0095 10.1524 13.4835 10.4142 13.8787Z" fill="#202020"/>
</g>
<defs>
<clipPath id="clip0_7201_63166">
<rect width="16" height="16" fill="white"/>
</clipPath>
</defs>
</svg>
