<svg width="16" height="16" viewBox="0 0 16 16" fill="none" xmlns="http://www.w3.org/2000/svg">
<g clip-path="url(#clip0_7202_65298)">
<path d="M12.0005 6.28143C12.0021 6.2157 11.9907 6.15031 11.967 6.08899C11.9436 6.02744 11.9083 5.97112 11.8631 5.92326C11.8179 5.8754 11.7636 5.83694 11.7035 5.81008C11.6434 5.78323 11.5786 5.76852 11.5128 5.76678C11.447 5.76505 11.3814 5.77634 11.32 5.79999L7 7.46399L4.68 6.57199C4.61874 6.54835 4.55342 6.53701 4.48778 6.53861C4.42213 6.54022 4.35745 6.55474 4.29741 6.58134C4.23738 6.60795 4.18318 6.64611 4.13789 6.69367C4.09261 6.74122 4.05714 6.79722 4.0335 6.85849C4.00986 6.91975 3.99852 6.98507 4.00013 7.05071C4.00173 7.11635 4.01625 7.18104 4.04286 7.24107C4.06946 7.30111 4.10763 7.35531 4.15518 7.40059C4.20273 7.44588 4.25874 7.48135 4.32 7.50499L6.5 8.34299V10.02C6.5 10.1526 6.55268 10.2798 6.64645 10.3735C6.74021 10.4673 6.86739 10.52 7 10.52C7.13261 10.52 7.25979 10.4673 7.35355 10.3735C7.44732 10.2798 7.5 10.1526 7.5 10.02V8.34399L11.68 6.73599C11.7414 6.7124 11.7975 6.67695 11.8451 6.63165C11.8928 6.58635 11.931 6.5321 11.9577 6.47201C11.9843 6.41191 11.9989 6.34715 12.0005 6.28143Z" fill="#006CBF"/>
<path d="M15 8.75777V5.79999C14.9982 5.49766 14.9058 5.20283 14.7346 4.95361C14.5635 4.70438 14.3215 4.51223 14.04 4.40199L9.54 2.67099C9.19298 2.53798 8.80902 2.53798 8.462 2.67099L1.962 5.17099C1.6798 5.28104 1.43719 5.47336 1.26565 5.72301C1.0941 5.97265 1.00155 6.26809 1 6.57099V10.2C1.00134 10.5028 1.09369 10.7982 1.26506 11.0479C1.43643 11.2975 1.67891 11.4899 1.961 11.6L6.46 13.329C6.80692 13.4626 7.19108 13.4626 7.538 13.329L8.04435 13.1342C8.01512 12.927 8 12.7153 8 12.5C8 12.3564 8.00673 12.2144 8.01988 12.0742L7.178 12.398C7.06276 12.4422 6.93524 12.4422 6.82 12.398L2.32 10.666C2.22587 10.6297 2.14494 10.5657 2.08782 10.4825C2.03071 10.3994 2.0001 10.3009 2 10.2V6.57099C1.99977 6.46964 2.03034 6.37061 2.08767 6.28703C2.145 6.20345 2.22637 6.13927 2.321 6.10299L8.821 3.60299C8.93602 3.55763 9.06398 3.55763 9.179 3.60299L13.679 5.33299C13.7735 5.36921 13.8547 5.43324 13.912 5.51662C13.9694 5.6 14 5.69881 14 5.79999V8.25606C14.356 8.3819 14.6915 8.55127 15 8.75777Z" fill="#006CBF"/>
<path fill-rule="evenodd" clip-rule="evenodd" d="M12.5 16C14.433 16 16 14.433 16 12.5C16 10.567 14.433 9 12.5 9C10.567 9 9 10.567 9 12.5C9 14.433 10.567 16 12.5 16ZM15 12.5C15 13.8807 13.8807 15 12.5 15C11.9905 15 11.5165 14.8476 11.1213 14.5858L14.5858 11.1213C14.8476 11.5165 15 11.9905 15 12.5ZM10.4142 13.8787L13.8787 10.4142C13.4835 10.1524 13.0095 10 12.5 10C11.1193 10 10 11.1193 10 12.5C10 13.0095 10.1524 13.4835 10.4142 13.8787Z" fill="#202020"/>
</g>
<defs>
<clipPath id="clip0_7202_65298">
<rect width="16" height="16" fill="white"/>
</clipPath>
</defs>
</svg>
