<svg width="16" height="16" viewBox="0 0 16 16" fill="none" xmlns="http://www.w3.org/2000/svg">
<path d="M0 5.5C0 4.11929 1.11929 3 2.5 3H4.5C4.77614 3 5 3.22386 5 3.5C5 3.77614 4.77614 4 4.5 4H2.5C1.67157 4 1 4.67157 1 5.5V11.5C1 12.3284 1.67157 13 2.5 13H8V14H2.5C1.11929 14 0 12.8807 0 11.5V5.5Z" fill="#202020"/>
<path d="M7.78034 2.05085C7.95188 1.96694 8.15624 1.98809 8.30698 2.10533L12.807 5.60533C12.9242 5.69653 12.9949 5.83514 12.9997 5.98361C13.0004 6.00299 12.9999 6.02228 12.9983 6.04139C12.8362 6.01417 12.6697 6 12.5 6C12.1821 6 11.8757 6.04971 11.5879 6.14177L11.7186 6.02564L8.50001 3.52232V5C8.50001 5.14223 8.43945 5.27772 8.33347 5.37257C8.2279 5.46706 8.08652 5.51223 7.94571 5.49705L7.94293 5.49679L7.92089 5.49498C7.89972 5.49341 7.86596 5.49133 7.82114 5.48988C7.73137 5.48699 7.59809 5.48666 7.43338 5.49788C7.10252 5.52044 6.65371 5.58903 6.17883 5.7709C5.61523 5.98675 5.01593 6.36132 4.52456 7.01319C4.2077 7.43355 3.9264 7.98158 3.7319 8.69863C4.66479 7.99299 5.55493 7.57965 6.2794 7.33816C6.77971 7.17139 7.1999 7.08691 7.49961 7.04409C7.64951 7.02268 7.76945 7.01166 7.85445 7.00599C7.89695 7.00316 7.93074 7.00166 7.9552 7.00087L7.98483 7.00014L7.99425 7.00003L7.99759 7.00001L7.99892 7L8.00001 7C8.27615 7 8.50001 7.22386 8.50001 7.5V8.88658L9.76947 7.75817C9.59646 8.13704 9.5 8.55795 9.5 9.001V9.039C8.77368 9.18851 8.19891 9.76524 8.04235 10.4982C7.95936 10.5053 7.8743 10.4917 7.79518 10.4561C7.61557 10.3755 7.50001 10.1969 7.50001 10V8.0563C7.2643 8.09693 6.9558 8.16679 6.59562 8.28685C5.72298 8.57773 4.54248 9.16464 3.35356 10.3536C3.20471 10.5024 2.97857 10.5421 2.78793 10.4528C2.5973 10.3635 2.48301 10.1644 2.50206 9.95474C2.64499 8.38259 3.10338 7.23727 3.72601 6.41126C4.34877 5.58508 5.11343 5.10809 5.82119 4.83704C6.41128 4.61105 6.96247 4.52766 7.36537 4.5002C7.41219 4.49701 7.45712 4.49456 7.50001 4.49274V2.5C7.50001 2.30904 7.60879 2.13475 7.78034 2.05085Z" fill="#11910D"/>
<path d="M10.5 9V10H9.875C9.392 10 9 10.403 9 10.9V15.1C9 15.597 9.392 16 9.875 16H15.125C15.608 16 16 15.597 16 15.1V10.9C16 10.403 15.608 10 15.125 10H14.5V9C14.5 7.895 13.605 7 12.5 7C11.395 7 10.5 7.895 10.5 9ZM12.5 8C13.052 8 13.5 8.448 13.5 9V10H11.5V9C11.5 8.448 11.948 8 12.5 8ZM12.5 13.75C12.086 13.75 11.75 13.414 11.75 13C11.75 12.586 12.086 12.25 12.5 12.25C12.914 12.25 13.25 12.586 13.25 13C13.25 13.414 12.914 13.75 12.5 13.75Z" fill="#202020"/>
</svg>
