<svg width="16" height="16" viewBox="0 0 16 16" fill="none" xmlns="http://www.w3.org/2000/svg">
<g clip-path="url(#clip0_7202_75266)">
<path d="M4.04031 5.30305C4.14909 5.04923 4.44303 4.93166 4.69684 5.04043L7.99988 6.45602L11.3029 5.04043C11.5567 4.93166 11.8507 5.04923 11.9595 5.30305C12.0682 5.55686 11.9507 5.8508 11.6968 5.95958L8.49988 7.3297V10.4366C8.4213 10.5887 8.35113 10.7458 8.28998 10.9073C8.20818 10.9657 8.10804 11 7.99988 11C7.72374 11 7.49988 10.7761 7.49988 10.5V7.3297L4.30292 5.95958C4.04911 5.8508 3.93153 5.55686 4.04031 5.30305Z" fill="#5C2E91"/>
<path d="M8.19428 13.8121C7.88711 13.842 7.57465 13.8007 7.28204 13.6882L2.32051 11.7799C2.12741 11.7057 2 11.5201 2 11.3133V4.68685C2 4.47997 2.12741 4.29445 2.32051 4.22018L7.28204 2.3119C7.74418 2.13415 8.25582 2.13415 8.71796 2.3119L13.6795 4.22018C13.8726 4.29445 14 4.47997 14 4.68685V8.25606C14.356 8.3819 14.6915 8.55127 15 8.75777V4.68685C15 4.06619 14.6178 3.50964 14.0385 3.28683L9.07694 1.37855C8.38373 1.11193 7.61627 1.11193 6.92306 1.37855L1.96153 3.28683C1.38224 3.50964 1 4.06619 1 4.68685V11.3133C1 11.9339 1.38224 12.4905 1.96153 12.7133L6.92306 14.6216C7.46288 14.8292 8.04772 14.8751 8.60747 14.7594C8.43529 14.4634 8.29589 14.1459 8.19428 13.8121Z" fill="#5C2E91"/>
<path fill-rule="evenodd" clip-rule="evenodd" d="M12.5 16C14.433 16 16 14.433 16 12.5C16 10.567 14.433 9 12.5 9C10.567 9 9 10.567 9 12.5C9 14.433 10.567 16 12.5 16ZM15 12.5C15 13.8807 13.8807 15 12.5 15C11.9905 15 11.5165 14.8476 11.1213 14.5858L14.5858 11.1213C14.8476 11.5165 15 11.9905 15 12.5ZM10.4142 13.8787L13.8787 10.4142C13.4835 10.1524 13.0095 10 12.5 10C11.1193 10 10 11.1193 10 12.5C10 13.0095 10.1524 13.4835 10.4142 13.8787Z" fill="#202020"/>
</g>
<defs>
<clipPath id="clip0_7202_75266">
<rect width="16" height="16" fill="white"/>
</clipPath>
</defs>
</svg>
