<svg width="16" height="16" viewBox="0 0 16 16" fill="none" xmlns="http://www.w3.org/2000/svg">
<g clip-path="url(#clip0_7202_81669)">
<path d="M3 4C3 2.89543 3.89543 2 5 2C5.27614 2 5.5 2.22386 5.5 2.5C5.5 2.77614 5.27614 3 5 3C4.44772 3 4 3.44772 4 4L4.00003 6.063C4.00033 6.51001 4.00065 6.971 3.83912 7.37408C3.74199 7.61645 3.59646 7.82057 3.40072 8.00002C3.59654 8.17962 3.74212 8.384 3.83924 8.6268C4.00065 9.03033 4.00033 9.49235 4.00003 9.94145L4 12C4 12.5523 4.44772 13 5 13C5.27614 13 5.5 13.2239 5.5 13.5C5.5 13.7761 5.27614 14 5 14C3.89543 14 3 13.1046 3 12L3 10C3 9.46732 2.99233 9.20211 2.91076 8.99819C2.84809 8.84151 2.71569 8.66685 2.27638 8.44719C2.10699 8.36249 2 8.18935 2 7.99997C2 7.81058 2.10701 7.63745 2.2764 7.55276C2.71576 7.33309 2.84826 7.15835 2.91088 7.00209C2.99231 6.79889 3 6.53494 3 6.00469V4Z" fill="#202020"/>
<path d="M13 4C13 2.89543 12.1046 2 11 2C10.7239 2 10.5 2.22386 10.5 2.5C10.5 2.77614 10.7239 3 11 3C11.5523 3 12 3.44772 12 4L12 6.063C11.9997 6.51001 11.9993 6.971 12.1609 7.37408C12.258 7.61645 12.4035 7.82057 12.5993 8.00002C12.4035 8.17962 12.2579 8.384 12.1608 8.6268C12.0663 8.86305 12.0272 9.11933 12.0111 9.38134C12.0721 9.32603 12.1378 9.27571 12.2078 9.23103C12.4442 9.08004 12.7189 8.99982 12.9995 8.99982C13.0289 8.99982 13.0583 9.0007 13.0875 9.00246L13.0892 8.99819C13.1519 8.84151 13.2843 8.66685 13.7236 8.44719C13.893 8.36249 14 8.18935 14 7.99997C14 7.81058 13.893 7.63745 13.7236 7.55276C13.2842 7.33309 13.1517 7.15835 13.0891 7.00209C13.0077 6.79889 13 6.53494 13 6.00469V4Z" fill="#202020"/>
<path d="M12.5701 10.279C12.6072 10.196 12.6676 10.1255 12.7439 10.076C12.8202 10.0266 12.9092 10.0002 13.0001 10.0002C13.091 10.0002 13.18 10.0266 13.2563 10.076C13.3327 10.1255 13.393 10.196 13.4301 10.279L14.0971 11.688L15.5891 11.914C15.6793 11.9313 15.7632 11.9727 15.8317 12.0338C15.9002 12.095 15.9509 12.1736 15.9782 12.2613C16.0055 12.349 16.0085 12.4424 15.9868 12.5317C15.9651 12.621 15.9196 12.7026 15.8551 12.768L14.7751 13.868L15.0301 15.417C15.0489 15.507 15.0418 15.6005 15.0094 15.6865C14.9771 15.7725 14.9209 15.8476 14.8475 15.9029C14.7741 15.9581 14.6864 15.9914 14.5948 15.9987C14.5032 16.006 14.4114 15.987 14.3301 15.944L13.0001 15.21L11.6661 15.941C11.5849 15.984 11.4931 16.003 11.4014 15.9957C11.3098 15.9884 11.2222 15.9551 11.1487 15.8999C11.0753 15.8446 11.0191 15.7695 10.9868 15.6835C10.9545 15.5975 10.9473 15.504 10.9661 15.414L11.2211 13.865L10.1411 12.765C10.0766 12.6996 10.0311 12.618 10.0094 12.5287C9.98776 12.4394 9.99074 12.346 10.0181 12.2583C10.0454 12.1706 10.096 12.092 10.1645 12.0308C10.233 11.9697 10.3169 11.9283 10.4071 11.911L11.8991 11.685L12.5701 10.279Z" fill="#202020"/>
</g>
<defs>
<clipPath id="clip0_7202_81669">
<rect width="16" height="16" fill="white"/>
</clipPath>
</defs>
</svg>
