<svg width="16" height="16" viewBox="0 0 16 16" fill="none" xmlns="http://www.w3.org/2000/svg">
<g clip-path="url(#clip0_7202_81649)">
<path d="M3 4C3 2.89543 3.89543 2 5 2C5.27614 2 5.5 2.22386 5.5 2.5C5.5 2.77614 5.27614 3 5 3C4.44772 3 4 3.44772 4 4L4.00003 6.063C4.00033 6.51001 4.00065 6.971 3.83912 7.37408C3.74199 7.61645 3.59646 7.82057 3.40072 8.00002C3.59654 8.17962 3.74212 8.384 3.83924 8.6268C4.00065 9.03033 4.00033 9.49235 4.00003 9.94145L4 12C4 12.5523 4.44772 13 5 13C5.27614 13 5.5 13.2239 5.5 13.5C5.5 13.7761 5.27614 14 5 14C3.89543 14 3 13.1046 3 12L3 10C3 9.46732 2.99233 9.20211 2.91076 8.99819C2.84809 8.84151 2.71569 8.66685 2.27638 8.44719C2.10699 8.36249 2 8.18935 2 7.99997C2 7.81058 2.10701 7.63745 2.2764 7.55276C2.71576 7.33309 2.84826 7.15835 2.91088 7.00209C2.99231 6.79889 3 6.53494 3 6.00469V4Z" fill="#202020"/>
<path d="M13 4C13 2.89543 12.1046 2 11 2C10.7239 2 10.5 2.22386 10.5 2.5C10.5 2.77614 10.7239 3 11 3C11.5523 3 12 3.44772 12 4L12 6.063C11.9997 6.51001 11.9993 6.971 12.1609 7.37408C12.258 7.61645 12.4035 7.82057 12.5993 8.00002C12.4035 8.17962 12.2579 8.384 12.1608 8.6268C12.0884 8.80779 12.0485 9.00053 12.0266 9.1986C12.1334 9.23834 12.238 9.28419 12.34 9.33602C12.393 9.36302 12.445 9.39201 12.496 9.42201C12.6691 9.3193 12.8515 9.23449 13.0404 9.16852C13.0526 9.10556 13.0686 9.0499 13.0892 8.99819C13.1519 8.84151 13.2843 8.66685 13.7236 8.44719C13.893 8.36249 14 8.18935 14 7.99997C14 7.81058 13.893 7.63745 13.7236 7.55276C13.2842 7.33309 13.1517 7.15835 13.0891 7.00209C13.0077 6.79889 13 6.53494 13 6.00469V4Z" fill="#202020"/>
<path d="M15.9999 11.93C15.9998 12.1828 15.9492 12.4331 15.8512 12.6661C15.7531 12.8991 15.6096 13.1102 15.4289 13.287L12.8069 15.873C12.7661 15.9133 12.7179 15.9452 12.6649 15.967C12.6125 15.9884 12.5565 15.9996 12.4999 16C12.4423 16.0002 12.3852 15.989 12.3319 15.967C12.2786 15.9452 12.23 15.9133 12.1889 15.873L9.56389 13.287C9.37754 13.1023 9.23147 12.881 9.13489 12.637C9.03742 12.3952 8.99144 12.1356 8.99989 11.875C9.00882 11.614 9.07146 11.3577 9.18389 11.122C9.29686 10.8845 9.45753 10.6727 9.65589 10.5C9.85489 10.3258 10.0868 10.1932 10.3379 10.11C10.5904 10.0265 10.8569 9.99391 11.1221 10.014C11.3873 10.0341 11.6458 10.1065 11.8829 10.227C12.1181 10.3466 12.3266 10.5126 12.4959 10.715C12.7552 10.403 13.1044 10.1784 13.4959 10.072C13.8881 9.96308 14.3042 9.97598 14.6889 10.109C15.0712 10.2405 15.4036 10.4867 15.6409 10.814C15.8752 11.1381 16.0009 11.5281 15.9999 11.928V11.93Z" fill="#202020"/>
</g>
<defs>
<clipPath id="clip0_7202_81649">
<rect width="16" height="16" fill="white"/>
</clipPath>
</defs>
</svg>
