<svg width="16" height="16" viewBox="0 0 16 16" fill="none" xmlns="http://www.w3.org/2000/svg">
<path d="M3 4C3 2.89543 3.89543 2 5 2C5.27614 2 5.5 2.22386 5.5 2.5C5.5 2.77614 5.27614 3 5 3C4.44772 3 4 3.44772 4 4L4.00003 6.063C4.00033 6.51001 4.00065 6.971 3.83912 7.37408C3.74199 7.61645 3.59646 7.82057 3.40072 8.00002C3.59654 8.17962 3.74212 8.384 3.83924 8.6268C4.00065 9.03033 4.00033 9.49235 4.00003 9.94145L4 12C4 12.5523 4.44772 13 5 13C5.27614 13 5.5 13.2239 5.5 13.5C5.5 13.7761 5.27614 14 5 14C3.89543 14 3 13.1046 3 12L3 10C3 9.46732 2.99233 9.20211 2.91076 8.99819C2.84809 8.84151 2.71569 8.66685 2.27638 8.44719C2.10699 8.36249 2 8.18935 2 7.99997C2 7.81058 2.10701 7.63745 2.2764 7.55276C2.71576 7.33309 2.84826 7.15835 2.91088 7.00209C2.99231 6.79889 3 6.53494 3 6.00469V4Z" fill="#202020"/>
<path d="M13 4C13 2.89543 12.1046 2 11 2C10.7239 2 10.5 2.22386 10.5 2.5C10.5 2.77614 10.7239 3 11 3C11.5523 3 12 3.44772 12 4L12 6.063C11.9997 6.51001 11.9993 6.971 12.1609 7.37408C12.258 7.61645 12.4035 7.82057 12.5993 8.00002C12.5879 8.01046 12.5767 8.02099 12.5656 8.0316C12.7086 8.01068 12.8538 8 13 8C13.3342 8 13.6627 8.05577 13.973 8.16216C13.9906 8.11078 14 8.05609 14 7.99997C14 7.81058 13.893 7.63745 13.7236 7.55276C13.2842 7.33309 13.1517 7.15835 13.0891 7.00209C13.0077 6.79889 13 6.53494 13 6.00469V4Z" fill="#202020"/>
<path d="M11 12V11C11 9.89543 11.8954 9 13 9C14.1046 9 15 9.89543 15 11V12C15.5523 12 16 12.4477 16 13V15C16 15.5523 15.5523 16 15 16H11C10.4477 16 10 15.5523 10 15V13C10 12.4477 10.4477 12 11 12ZM12 11V12H14V11C14 10.4477 13.5523 10 13 10C12.4477 10 12 10.4477 12 11Z" fill="#202020"/>
</svg>
