<svg width="16" height="16" viewBox="0 0 16 16" fill="none" xmlns="http://www.w3.org/2000/svg">
<g clip-path="url(#clip0_7202_83719)">
<path d="M3 1H13C14.103 1 15 1.897 15 3V8.75777C14.6915 8.55127 14.356 8.3819 14 8.25606V3C14 2.449 13.552 2 13 2H3C2.448 2 2 2.449 2 3V13C2 13.551 2.448 14 3 14H8.25606C8.3819 14.356 8.55127 14.6915 8.75777 15H3C1.897 15 1 14.103 1 13V3C1 1.897 1.897 1 3 1Z" fill="#006CBF"/>
<path d="M7.5 6C7.776 6 8 5.776 8 5.5C8 5.224 7.776 5 7.5 5H6V3.5C6 3.224 5.776 3 5.5 3C5.224 3 5 3.224 5 3.5V5H3.5C3.224 5 3 5.224 3 5.5C3 5.776 3.224 6 3.5 6H5V7.5C5 7.776 5.224 8 5.5 8C5.776 8 6 7.776 6 7.5V6H7.5Z" fill="#006CBF"/>
<path d="M6.208 10.5L7.354 9.354H7.352C7.547 9.159 7.547 8.842 7.352 8.647C7.157 8.452 6.84 8.452 6.645 8.647L5.499 9.793L4.353 8.647C4.158 8.452 3.841 8.452 3.646 8.647C3.451 8.842 3.451 9.159 3.646 9.354L4.792 10.5L3.646 11.646C3.451 11.841 3.451 12.158 3.646 12.353C3.744 12.45 3.872 12.499 4 12.499C4.128 12.499 4.256 12.451 4.354 12.353L5.5 11.207L6.646 12.353C6.744 12.45 6.872 12.499 7 12.499C7.128 12.499 7.256 12.451 7.354 12.353C7.549 12.158 7.549 11.841 7.354 11.646L6.208 10.5Z" fill="#006CBF"/>
<path d="M12.5 6C12.776 6 13 5.776 13 5.5C13 5.224 12.776 5 12.5 5H9.5C9.224 5 9 5.224 9 5.5C9 5.776 9.224 6 9.5 6H12.5Z" fill="#006CBF"/>
<path fill-rule="evenodd" clip-rule="evenodd" d="M12.5 16C14.433 16 16 14.433 16 12.5C16 10.567 14.433 9 12.5 9C10.567 9 9 10.567 9 12.5C9 14.433 10.567 16 12.5 16ZM15 12.5C15 13.8807 13.8807 15 12.5 15C11.9905 15 11.5165 14.8476 11.1213 14.5858L14.5858 11.1213C14.8476 11.5165 15 11.9905 15 12.5ZM10.4142 13.8787L13.8787 10.4142C13.4835 10.1524 13.0095 10 12.5 10C11.1193 10 10 11.1193 10 12.5C10 13.0095 10.1524 13.4835 10.4142 13.8787Z" fill="#202020"/>
</g>
<defs>
<clipPath id="clip0_7202_83719">
<rect width="16" height="16" fill="white"/>
</clipPath>
</defs>
</svg>
