<svg width="16" height="16" viewBox="0 0 16 16" fill="none" xmlns="http://www.w3.org/2000/svg">
<g clip-path="url(#clip0_7202_83682)">
<path d="M13 1H3C1.897 1 1 1.897 1 3V13C1 14.103 1.897 15 3 15H9.87685L8.86097 14L3 14C2.448 14 2 13.551 2 13V3C2 2.449 2.448 2 3 2H13C13.552 2 14 2.449 14 3V9.00025C14.3393 8.99645 14.6774 9.05 15 9.15921V3C15 1.897 14.103 1 13 1Z" fill="#006CBF"/>
<path d="M8 5.5C8 5.776 7.776 6 7.5 6H6V7.5C6 7.776 5.776 8 5.5 8C5.224 8 5 7.776 5 7.5V6H3.5C3.224 6 3 5.776 3 5.5C3 5.224 3.224 5 3.5 5H5V3.5C5 3.224 5.224 3 5.5 3C5.776 3 6 3.224 6 3.5V5H7.5C7.776 5 8 5.224 8 5.5Z" fill="#006CBF"/>
<path d="M7.354 9.354L6.208 10.5L7.354 11.646C7.549 11.841 7.549 12.158 7.354 12.353C7.256 12.451 7.128 12.499 7 12.499C6.872 12.499 6.744 12.45 6.646 12.353L5.5 11.207L4.354 12.353C4.256 12.451 4.128 12.499 4 12.499C3.872 12.499 3.744 12.45 3.646 12.353C3.451 12.158 3.451 11.841 3.646 11.646L4.792 10.5L3.646 9.354C3.451 9.159 3.451 8.842 3.646 8.647C3.841 8.452 4.158 8.452 4.353 8.647L5.499 9.793L6.645 8.647C6.84 8.452 7.157 8.452 7.352 8.647C7.547 8.842 7.547 9.159 7.352 9.354H7.354Z" fill="#006CBF"/>
<path d="M13 5.5C13 5.776 12.776 6 12.5 6H9.5C9.224 6 9 5.776 9 5.5C9 5.224 9.224 5 9.5 5H12.5C12.776 5 13 5.224 13 5.5Z" fill="#006CBF"/>
<path d="M15.9999 11.93C15.9998 12.1828 15.9492 12.4331 15.8512 12.6661C15.7531 12.8991 15.6096 13.1102 15.4289 13.287L12.8069 15.873C12.7661 15.9133 12.7179 15.9452 12.6649 15.967C12.6125 15.9884 12.5565 15.9996 12.4999 16C12.4423 16.0002 12.3852 15.989 12.3319 15.967C12.2786 15.9452 12.23 15.9133 12.1889 15.873L9.56389 13.287C9.37754 13.1023 9.23147 12.881 9.13489 12.637C9.03742 12.3952 8.99144 12.1356 8.99989 11.875C9.00882 11.614 9.07146 11.3577 9.18389 11.122C9.29686 10.8845 9.45753 10.6727 9.65589 10.5C9.85489 10.3258 10.0868 10.1932 10.3379 10.11C10.5904 10.0265 10.8569 9.99391 11.1221 10.014C11.3873 10.0341 11.6458 10.1065 11.8829 10.227C12.1181 10.3466 12.3266 10.5126 12.4959 10.715C12.7552 10.403 13.1044 10.1784 13.4959 10.072C13.8881 9.96308 14.3042 9.97598 14.6889 10.109C15.0712 10.2405 15.4036 10.4867 15.6409 10.814C15.8752 11.1381 16.0009 11.5281 15.9999 11.928V11.93Z" fill="#202020"/>
</g>
<defs>
<clipPath id="clip0_7202_83682">
<rect width="16" height="16" fill="white"/>
</clipPath>
</defs>
</svg>
