<svg width="16" height="16" viewBox="0 0 16 16" fill="none" xmlns="http://www.w3.org/2000/svg">
<g clip-path="url(#clip0_7202_83706)">
<path d="M3 1H13C14.103 1 15 1.897 15 3V10.8146L14.773 10.78L14.334 9.85199C14.2532 9.67781 14.1395 9.52193 14 9.39248V3C14 2.449 13.552 2 13 2H3C2.448 2 2 2.449 2 3V13C2 13.551 2.448 14 3 14H9.95926L10.156 14.2L10.0251 15H3C1.897 15 1 14.103 1 13V3C1 1.897 1.897 1 3 1Z" fill="#006CBF"/>
<path d="M11.595 10L11.227 10.779L10.262 10.926C10.1628 10.9409 10.0659 10.9657 9.97257 11H9.5C9.224 11 9 10.776 9 10.5C9 10.224 9.224 10 9.5 10H11.595Z" fill="#006CBF"/>
<path d="M7.5 6C7.776 6 8 5.776 8 5.5C8 5.224 7.776 5 7.5 5H6V3.5C6 3.224 5.776 3 5.5 3C5.224 3 5 3.224 5 3.5V5H3.5C3.224 5 3 5.224 3 5.5C3 5.776 3.224 6 3.5 6H5V7.5C5 7.776 5.224 8 5.5 8C5.776 8 6 7.776 6 7.5V6H7.5Z" fill="#006CBF"/>
<path d="M6.208 10.5L7.354 9.354H7.352C7.547 9.159 7.547 8.842 7.352 8.647C7.157 8.452 6.84 8.452 6.645 8.647L5.499 9.793L4.353 8.647C4.158 8.452 3.841 8.452 3.646 8.647C3.451 8.842 3.451 9.159 3.646 9.354L4.792 10.5L3.646 11.646C3.451 11.841 3.451 12.158 3.646 12.353C3.744 12.45 3.872 12.499 4 12.499C4.128 12.499 4.256 12.451 4.354 12.353L5.5 11.207L6.646 12.353C6.744 12.45 6.872 12.499 7 12.499C7.128 12.499 7.256 12.451 7.354 12.353C7.549 12.158 7.549 11.841 7.354 11.646L6.208 10.5Z" fill="#006CBF"/>
<path d="M12.5 6C12.776 6 13 5.776 13 5.5C13 5.224 12.776 5 12.5 5H9.5C9.224 5 9 5.224 9 5.5C9 5.776 9.224 6 9.5 6H12.5Z" fill="#006CBF"/>
<path d="M10.5 9C10.5 9.276 10.724 9.5 11 9.5C11.276 9.5 11.5 9.276 11.5 9C11.5 8.724 11.276 8.5 11 8.5C10.724 8.5 10.5 8.724 10.5 9Z" fill="#006CBF"/>
<path d="M12.5701 10.279C12.6072 10.196 12.6676 10.1255 12.7439 10.076C12.8202 10.0266 12.9092 10.0002 13.0001 10.0002C13.091 10.0002 13.18 10.0266 13.2563 10.076C13.3327 10.1255 13.393 10.196 13.4301 10.279L14.0971 11.688L15.5891 11.914C15.6793 11.9313 15.7632 11.9727 15.8317 12.0338C15.9002 12.095 15.9509 12.1736 15.9782 12.2613C16.0055 12.349 16.0085 12.4424 15.9868 12.5317C15.9651 12.621 15.9196 12.7026 15.8551 12.768L14.7751 13.868L15.0301 15.417C15.0489 15.507 15.0418 15.6005 15.0094 15.6865C14.9771 15.7725 14.9209 15.8476 14.8475 15.9029C14.7741 15.9581 14.6864 15.9914 14.5948 15.9987C14.5032 16.006 14.4114 15.987 14.3301 15.944L13.0001 15.21L11.6661 15.941C11.5849 15.984 11.4931 16.003 11.4014 15.9957C11.3098 15.9884 11.2222 15.9551 11.1487 15.8999C11.0753 15.8446 11.0191 15.7695 10.9868 15.6835C10.9545 15.5975 10.9473 15.504 10.9661 15.414L11.2211 13.865L10.1411 12.765C10.0766 12.6996 10.0311 12.618 10.0094 12.5287C9.98776 12.4394 9.99074 12.346 10.0181 12.2583C10.0454 12.1706 10.096 12.092 10.1645 12.0308C10.233 11.9697 10.3169 11.9283 10.4071 11.911L11.8991 11.685L12.5701 10.279Z" fill="#202020"/>
</g>
<defs>
<clipPath id="clip0_7202_83706">
<rect width="16" height="16" fill="white"/>
</clipPath>
</defs>
</svg>
