<svg width="16" height="16" viewBox="0 0 16 16" fill="none" xmlns="http://www.w3.org/2000/svg">
<path d="M7 6H3C1.34315 6 0 7.34315 0 9V13C0 14.6569 1.34315 16 3 16H7C8.65685 16 10 14.6569 10 13V9C10 7.34315 8.65685 6 7 6Z" fill="white"/>
<path fill-rule="evenodd" clip-rule="evenodd" d="M1 9C1 7.89543 1.89543 7 3 7H7C8.10457 7 9 7.89543 9 9V13C9 14.1046 8.10457 15 7 15H3C1.89543 15 1 14.1046 1 13V9ZM6 9.5C6 9.22386 5.77614 9 5.5 9C5.22386 9 5 9.22386 5 9.5C5 9.58738 4.95127 9.71662 4.83395 9.83395C4.71662 9.95127 4.58738 10 4.5 10C4.22386 10 4 10.2239 4 10.5C4 10.7761 4.22386 11 4.5 11C4.67614 11 4.84465 10.9633 5 10.9012V12.5C5 12.7761 5.22386 13 5.5 13C5.77614 13 6 12.7761 6 12.5V9.5Z" fill="#202020"/>
</svg>
