<svg width="16" height="16" viewBox="0 0 16 16" fill="none" xmlns="http://www.w3.org/2000/svg">
<g clip-path="url(#clip0_7202_84459)">
<path d="M15 6.5V8.82249C14.9772 8.8293 14.9544 8.83658 14.9318 8.84434C14.6798 8.93091 14.451 9.07414 14.263 9.26303L14 9.52595V6.5C14 5.673 13.327 5 12.5 5H3.5C2.673 5 2 5.673 2 6.5V10.5C2 11.327 2.673 12 3.5 12H6.56462C6.49278 12.1031 6.43209 12.2139 6.38377 12.3306C6.29586 12.5428 6.25061 12.7703 6.25061 13H3.5C2.122 13 1 11.878 1 10.5V6.5C1 5.122 2.122 4 3.5 4H12.5C13.878 4 15 5.122 15 6.5Z" fill="#202020"/>
<path d="M9.5 6H3.5C3.22386 6 3 6.22386 3 6.5V10.5C3 10.7761 3.22386 11 3.5 11H9.5C9.77614 11 10 10.7761 10 10.5V6.5C10 6.22386 9.77614 6 9.5 6Z" fill="#006CBF"/>
<path d="M10.5 16C10.4343 16.0001 10.3692 15.9873 10.3085 15.9623C10.2477 15.9372 10.1925 15.9004 10.146 15.854L7.64602 13.354C7.55213 13.2601 7.49939 13.1328 7.49939 13C7.49939 12.8672 7.55213 12.7399 7.64602 12.646C7.73991 12.5521 7.86725 12.4994 8.00002 12.4994C8.1328 12.4994 8.26013 12.5521 8.35402 12.646L10.5 14.793L15.146 10.146C15.2399 10.0521 15.3672 9.99939 15.5 9.99939C15.6328 9.99939 15.7601 10.0521 15.854 10.146C15.9479 10.2399 16.0007 10.3672 16.0007 10.5C16.0007 10.6328 15.9479 10.7601 15.854 10.854L10.854 15.854C10.8075 15.9004 10.7523 15.9372 10.6916 15.9623C10.6308 15.9873 10.5657 16.0001 10.5 16Z" fill="#11910D"/>
</g>
<defs>
<clipPath id="clip0_7202_84459">
<rect width="16" height="16" fill="white"/>
</clipPath>
</defs>
</svg>
