<svg width="16" height="16" viewBox="0 0 16 16" fill="none" xmlns="http://www.w3.org/2000/svg">
<g clip-path="url(#clip0_7202_86059)">
<path fill-rule="evenodd" clip-rule="evenodd" d="M10.9999 1C8.79075 1 6.99989 2.79086 6.99989 5C6.99989 5.31279 7.03588 5.61771 7.10411 5.91061L2.05327 11.1453C1.24088 11.9872 1.32876 13.3455 2.24289 14.0757C3.03692 14.7101 4.18171 14.6425 4.89566 13.9192L8.74414 10.0205C9.5495 8.80302 10.931 8 12.5 8C12.8475 8 13.1858 8.0394 13.5107 8.11396C14.419 7.38071 14.9999 6.25819 14.9999 5C14.9999 4.49138 14.9047 4.0038 14.7307 3.55493C14.6697 3.39732 14.5331 3.28125 14.3677 3.24637C14.2023 3.2115 14.0305 3.26254 13.911 3.38207L12.0001 5.29302L10.7072 4.00012L12.6182 2.08904C12.7377 1.96953 12.7888 1.79773 12.7539 1.63235C12.719 1.46698 12.603 1.3304 12.4454 1.26931C11.9964 1.09524 11.5087 1 10.9999 1ZM7.99989 5C7.99989 3.34315 9.34303 2 10.9999 2C11.0945 2 11.188 2.00436 11.2802 2.01289L9.64655 3.64658C9.45129 3.84185 9.45129 4.15842 9.64655 4.35368L11.6466 6.35368C11.7403 6.44745 11.8675 6.50013 12.0001 6.50013C12.1327 6.50013 12.2599 6.44745 12.3537 6.35368L13.987 4.72023C13.9955 4.81228 13.9999 4.9056 13.9999 5C13.9999 6.65685 12.6567 8 10.9999 8C10.6261 8 10.2693 7.93186 9.9406 7.80777C9.75569 7.73797 9.54702 7.78364 9.40817 7.9243L4.18398 13.2167C3.82955 13.5758 3.26123 13.6093 2.86703 13.2944C2.41323 12.9319 2.3696 12.2576 2.7729 11.8396L8.02099 6.40054C8.14821 6.26869 8.19313 6.07781 8.13805 5.90305C8.04841 5.61868 7.99989 5.31548 7.99989 5Z" fill="#202020"/>
<path fill-rule="evenodd" clip-rule="evenodd" d="M12.5 16C14.433 16 16 14.433 16 12.5C16 10.567 14.433 9 12.5 9C10.567 9 9 10.567 9 12.5C9 14.433 10.567 16 12.5 16ZM15 12.5C15 13.8807 13.8807 15 12.5 15C11.9905 15 11.5165 14.8476 11.1213 14.5858L14.5858 11.1213C14.8476 11.5165 15 11.9905 15 12.5ZM10.4142 13.8787L13.8787 10.4142C13.4835 10.1524 13.0095 10 12.5 10C11.1193 10 10 11.1193 10 12.5C10 13.0095 10.1524 13.4835 10.4142 13.8787Z" fill="#202020"/>
</g>
<defs>
<clipPath id="clip0_7202_86059">
<rect width="16" height="16" fill="white"/>
</clipPath>
</defs>
</svg>
