<svg width="16" height="16" viewBox="0 0 16 16" fill="none" xmlns="http://www.w3.org/2000/svg">
<path fill-rule="evenodd" clip-rule="evenodd" d="M3 3C2.44772 3 2 3.44772 2 4V6C2 6.55228 2.44772 7 3 7H13C13.5523 7 14 6.55228 14 6V4C14 3.44772 13.5523 3 13 3H3ZM13 4H3L3 6H13V4Z" fill="#006CBF"/>
<path fill-rule="evenodd" clip-rule="evenodd" d="M2 9C2 8.44772 2.44772 8 3 8H5C5.55228 8 6 8.44772 6 9V11C6 11.5523 5.55228 12 5 12H3C2.44772 12 2 11.5523 2 11V9ZM3 9H5V11H3V9Z" fill="#006CBF"/>
<path d="M11 12V11C11 9.89543 11.8954 9 13 9C14.1046 9 15 9.89543 15 11V12C15.5523 12 16 12.4477 16 13V15C16 15.5523 15.5523 16 15 16H11C10.4477 16 10 15.5523 10 15V13C10 12.4477 10.4477 12 11 12ZM12 11V12H14V11C14 10.4477 13.5523 10 13 10C12.4477 10 12 10.4477 12 11Z" fill="#202020"/>
</svg>
