<svg width="16" height="16" viewBox="0 0 16 16" fill="none" xmlns="http://www.w3.org/2000/svg">
<g clip-path="url(#clip0_7204_98146)">
<path fill-rule="evenodd" clip-rule="evenodd" d="M2 4C2 3.44772 2.44772 3 3 3H13C13.5523 3 14 3.44772 14 4V6C14 6.55228 13.5523 7 13 7H3C2.44772 7 2 6.55228 2 6V4ZM3 4H13V6H3L3 4Z" fill="#006CBF"/>
<path fill-rule="evenodd" clip-rule="evenodd" d="M3 8C2.44772 8 2 8.44772 2 9V11C2 11.5523 2.44772 12 3 12H5C5.55228 12 6 11.5523 6 11V9C6 8.44772 5.55228 8 5 8H3ZM5 9H3V11H5V9Z" fill="#006CBF"/>
<path d="M10 9C10 8.44772 10.4477 8 11 8H13C13.5523 8 14 8.44772 14 9V9.39254C13.9356 9.33284 13.8658 9.27875 13.7912 9.23109C13.5547 9.0801 13.28 8.99988 12.9995 8.99988C12.9932 8.99988 12.9868 8.99992 12.9805 9H11V10.8136L10.262 10.926C10.1725 10.9395 10.0848 10.961 10 10.9903V9Z" fill="#006CBF"/>
<path d="M12.5701 10.279C12.6072 10.196 12.6676 10.1255 12.7439 10.076C12.8202 10.0266 12.9092 10.0002 13.0001 10.0002C13.091 10.0002 13.18 10.0266 13.2563 10.076C13.3327 10.1255 13.393 10.196 13.4301 10.279L14.0971 11.688L15.5891 11.914C15.6793 11.9313 15.7632 11.9727 15.8317 12.0338C15.9002 12.095 15.9509 12.1736 15.9782 12.2613C16.0055 12.349 16.0085 12.4424 15.9868 12.5317C15.9651 12.621 15.9196 12.7026 15.8551 12.768L14.7751 13.868L15.0301 15.417C15.0489 15.507 15.0418 15.6005 15.0094 15.6865C14.9771 15.7725 14.9209 15.8476 14.8475 15.9029C14.7741 15.9581 14.6864 15.9914 14.5948 15.9987C14.5032 16.006 14.4114 15.987 14.3301 15.944L13.0001 15.21L11.6661 15.941C11.5849 15.984 11.4931 16.003 11.4014 15.9957C11.3098 15.9884 11.2222 15.9551 11.1487 15.8999C11.0753 15.8446 11.0191 15.7695 10.9868 15.6835C10.9545 15.5975 10.9473 15.504 10.9661 15.414L11.2211 13.865L10.1411 12.765C10.0766 12.6996 10.0311 12.618 10.0094 12.5287C9.98776 12.4394 9.99074 12.346 10.0181 12.2583C10.0454 12.1706 10.096 12.092 10.1645 12.0308C10.233 11.9697 10.3169 11.9283 10.4071 11.911L11.8991 11.685L12.5701 10.279Z" fill="#202020"/>
</g>
<defs>
<clipPath id="clip0_7204_98146">
<rect width="16" height="16" fill="white"/>
</clipPath>
</defs>
</svg>
