<svg width="16" height="16" viewBox="0 0 16 16" fill="none" xmlns="http://www.w3.org/2000/svg">
<path fill-rule="evenodd" clip-rule="evenodd" d="M2 4C2 3.44772 2.44772 3 3 3H13C13.5523 3 14 3.44772 14 4V6C14 6.55228 13.5523 7 13 7H3C2.44772 7 2 6.55228 2 6V4ZM3 4H13V6H3L3 4Z" fill="#006CBF"/>
<path fill-rule="evenodd" clip-rule="evenodd" d="M3 8C2.44772 8 2 8.44772 2 9V11C2 11.5523 2.44772 12 3 12H5C5.55228 12 6 11.5523 6 11V9C6 8.44772 5.55228 8 5 8H3ZM5 9H3V11H5V9Z" fill="#006CBF"/>
<path d="M10 9C10 8.44772 10.4477 8 11 8H13C13.5523 8 14 8.44772 14 9C13.9094 9.00101 13.8187 9.00643 13.7281 9.01566C13.4787 9.04109 13.2342 9.09747 13 9.183V9H11V9.00909C10.992 9.00908 10.984 9.00908 10.976 9.00908C10.6542 9.00911 10.3346 9.06042 10.029 9.16108C10.0193 9.16425 10.0096 9.16748 10 9.17076V9Z" fill="#006CBF"/>
<path d="M15.9999 11.93C15.9998 12.1828 15.9492 12.433 15.8512 12.666C15.7531 12.899 15.6096 13.1102 15.4289 13.287L12.8069 15.873C12.7661 15.9133 12.7179 15.9452 12.6649 15.967C12.6125 15.9884 12.5565 15.9996 12.4999 16C12.4423 16.0001 12.3852 15.9889 12.3319 15.967C12.2786 15.9452 12.23 15.9133 12.1889 15.873L9.56389 13.287C9.37754 13.1023 9.23147 12.8809 9.13489 12.637C9.03742 12.3951 8.99144 12.1356 8.99989 11.875C9.00882 11.614 9.07146 11.3577 9.18389 11.122C9.29686 10.8844 9.45753 10.6727 9.65589 10.5C9.85489 10.3257 10.0868 10.1931 10.3379 10.11C10.5904 10.0265 10.8569 9.99388 11.1221 10.014C11.3873 10.034 11.6458 10.1064 11.8829 10.227C12.1181 10.3466 12.3266 10.5126 12.4959 10.715C12.7552 10.4029 13.1044 10.1784 13.4959 10.072C13.8881 9.96305 14.3042 9.97595 14.6889 10.109C15.0712 10.2405 15.4036 10.4866 15.6409 10.814C15.8752 11.1381 16.0009 11.528 15.9999 11.928V11.93Z" fill="#202020"/>
</svg>
