<svg width="16" height="16" viewBox="0 0 16 16" fill="none" xmlns="http://www.w3.org/2000/svg">
<g clip-path="url(#clip0_7204_98159)">
<path fill-rule="evenodd" clip-rule="evenodd" d="M3 3C2.44772 3 2 3.44772 2 4V6C2 6.55228 2.44772 7 3 7H13C13.5523 7 14 6.55228 14 6V4C14 3.44772 13.5523 3 13 3H3ZM13 4H3L3 6H13V4Z" fill="#006CBF"/>
<path fill-rule="evenodd" clip-rule="evenodd" d="M2 9C2 8.44772 2.44772 8 3 8H5C5.55228 8 6 8.44772 6 9V11C6 11.5523 5.55228 12 5 12H3C2.44772 12 2 11.5523 2 11V9ZM3 9H5V11H3V9Z" fill="#006CBF"/>
<path fill-rule="evenodd" clip-rule="evenodd" d="M12.5 16C14.433 16 16 14.433 16 12.5C16 10.567 14.433 9 12.5 9C10.567 9 9 10.567 9 12.5C9 14.433 10.567 16 12.5 16ZM15 12.5C15 13.8807 13.8807 15 12.5 15C11.9905 15 11.5165 14.8476 11.1213 14.5858L14.5858 11.1213C14.8476 11.5165 15 11.9905 15 12.5ZM10.4142 13.8787L13.8787 10.4142C13.4835 10.1524 13.0095 10 12.5 10C11.1193 10 10 11.1193 10 12.5C10 13.0095 10.1524 13.4835 10.4142 13.8787Z" fill="#202020"/>
</g>
<defs>
<clipPath id="clip0_7204_98159">
<rect width="16" height="16" fill="white"/>
</clipPath>
</defs>
</svg>
