<svg width="16" height="16" viewBox="0 0 16 16" fill="none" xmlns="http://www.w3.org/2000/svg">
<g clip-path="url(#clip0_7204_100175)">
<path d="M5.43934 2.43934C5.72064 2.15804 6.10218 2 6.5 2H12.5C12.8978 2 13.2794 2.15804 13.5607 2.43934C13.842 2.72064 14 3.10217 14 3.5V8.5C14 8.67052 13.971 8.83805 13.9156 8.99597H12.5634C12.6726 8.98202 12.7748 8.93226 12.8536 8.85355C12.9473 8.75978 13 8.63261 13 8.5V3.5C13 3.36739 12.9473 3.24021 12.8536 3.14645C12.7598 3.05268 12.6326 3 12.5 3H6.5C6.36739 3 6.24022 3.05268 6.14645 3.14645C6.05268 3.24021 6 3.36739 6 3.5V5H5V3.5C5 3.10217 5.15804 2.72064 5.43934 2.43934Z" fill="#006CBF"/>
<path d="M11 7.5V10.8136L10.262 10.926C10.1725 10.9394 10.0848 10.961 10 10.9902V7.5C10 7.22386 9.77614 7 9.5 7H3.5C3.22386 7 3 7.22386 3 7.5V12.5C3 12.7761 3.22386 13 3.5 13H9.12099C9.19469 13.1724 9.30028 13.3303 9.43298 13.465L9.90488 13.9447C9.77609 13.9807 9.64029 14 9.5 14H3.5C2.67157 14 2 13.3284 2 12.5V7.5C2 6.67157 2.67157 6 3.5 6H9.5C10.3284 6 11 6.67157 11 7.5Z" fill="#006CBF"/>
<path d="M12.5701 10.279C12.6072 10.196 12.6676 10.1255 12.7439 10.076C12.8202 10.0266 12.9092 10.0002 13.0001 10.0002C13.091 10.0002 13.18 10.0266 13.2563 10.076C13.3327 10.1255 13.393 10.196 13.4301 10.279L14.0971 11.688L15.5891 11.914C15.6793 11.9313 15.7632 11.9727 15.8317 12.0338C15.9002 12.095 15.9509 12.1736 15.9782 12.2613C16.0055 12.349 16.0085 12.4424 15.9868 12.5317C15.9651 12.621 15.9196 12.7026 15.8551 12.768L14.7751 13.868L15.0301 15.417C15.0489 15.507 15.0418 15.6005 15.0094 15.6865C14.9771 15.7725 14.9209 15.8476 14.8475 15.9029C14.7741 15.9581 14.6864 15.9914 14.5948 15.9987C14.5032 16.006 14.4114 15.987 14.3301 15.944L13.0001 15.21L11.6661 15.941C11.5849 15.984 11.4931 16.003 11.4014 15.9957C11.3098 15.9884 11.2222 15.9551 11.1487 15.8999C11.0753 15.8446 11.0191 15.7695 10.9868 15.6835C10.9545 15.5975 10.9473 15.504 10.9661 15.414L11.2211 13.865L10.1411 12.765C10.0766 12.6996 10.0311 12.618 10.0094 12.5287C9.98776 12.4394 9.99074 12.346 10.0181 12.2583C10.0454 12.1706 10.096 12.092 10.1645 12.0308C10.233 11.9697 10.3169 11.9283 10.4071 11.911L11.8991 11.685L12.5701 10.279Z" fill="#202020"/>
</g>
<defs>
<clipPath id="clip0_7204_100175">
<rect width="16" height="16" fill="white"/>
</clipPath>
</defs>
</svg>
