<svg width="16" height="16" viewBox="0 0 16 16" fill="none" xmlns="http://www.w3.org/2000/svg">
<path d="M5.43934 2.43934C5.72064 2.15804 6.10218 2 6.5 2H12.5C12.8978 2 13.2794 2.15804 13.5607 2.43934C13.842 2.72064 14 3.10217 14 3.5V8.5C14 8.67052 13.971 8.83805 13.9156 8.99597H12.5634C12.6726 8.98202 12.7748 8.93226 12.8536 8.85355C12.9473 8.75978 13 8.63261 13 8.5V3.5C13 3.36739 12.9473 3.24021 12.8536 3.14645C12.7598 3.05268 12.6326 3 12.5 3H6.5C6.36739 3 6.24022 3.05268 6.14645 3.14645C6.05268 3.24021 6 3.36739 6 3.5V5H5V3.5C5 3.10217 5.15804 2.72064 5.43934 2.43934Z" fill="#006CBF"/>
<path d="M11 7.5V9.00903L10.976 9.00901C10.6542 9.00905 10.3346 9.06036 10.029 9.16102L10 9.1707V7.5C10 7.22386 9.77614 7 9.5 7H3.5C3.22386 7 3 7.22386 3 7.5V12.5C3 12.7761 3.22386 13 3.5 13H8.20201L8.20597 13.01C8.35371 13.3816 8.57671 13.7187 8.86096 14H3.5C2.67157 14 2 13.3284 2 12.5V7.5C2 6.67157 2.67157 6 3.5 6H9.5C10.3284 6 11 6.67157 11 7.5Z" fill="#006CBF"/>
<path d="M15.9999 11.93C15.9998 12.1828 15.9492 12.433 15.8512 12.666C15.7531 12.899 15.6096 13.1102 15.4289 13.287L12.8069 15.873C12.7661 15.9133 12.7179 15.9452 12.6649 15.967C12.6125 15.9884 12.5565 15.9996 12.4999 16C12.4423 16.0001 12.3852 15.9889 12.3319 15.967C12.2786 15.9452 12.23 15.9133 12.1889 15.873L9.56389 13.287C9.37754 13.1023 9.23147 12.8809 9.13489 12.637C9.03742 12.3951 8.99144 12.1356 8.99989 11.875C9.00882 11.614 9.07146 11.3577 9.18389 11.122C9.29686 10.8844 9.45753 10.6727 9.65589 10.5C9.85489 10.3257 10.0868 10.1931 10.3379 10.11C10.5904 10.0265 10.8569 9.99388 11.1221 10.014C11.3873 10.034 11.6458 10.1064 11.8829 10.227C12.1181 10.3466 12.3266 10.5126 12.4959 10.715C12.7552 10.4029 13.1044 10.1784 13.4959 10.072C13.8881 9.96305 14.3042 9.97595 14.6889 10.109C15.0712 10.2405 15.4036 10.4866 15.6409 10.814C15.8752 11.1381 16.0009 11.528 15.9999 11.928V11.93Z" fill="#202020"/>
</svg>
