<svg width="16" height="16" viewBox="0 0 16 16" fill="none" xmlns="http://www.w3.org/2000/svg">
<path d="M6.5 2C6.10218 2 5.72064 2.15804 5.43934 2.43934C5.15804 2.72064 5 3.10217 5 3.5V5H6V3.5C6 3.36739 6.05268 3.24021 6.14645 3.14645C6.24022 3.05268 6.36739 3 6.5 3H12.5C12.6326 3 12.7598 3.05268 12.8536 3.14645C12.9473 3.24021 13 3.36739 13 3.5V8C13.3439 8 13.6818 8.05906 14 8.17157V3.5C14 3.10217 13.842 2.72064 13.5607 2.43934C13.2794 2.15804 12.8978 2 12.5 2H6.5Z" fill="#006CBF"/>
<path d="M11 8.76393V7.5C11 6.67157 10.3284 6 9.5 6H3.5C2.67157 6 2 6.67157 2 7.5V12.5C2 13.3284 2.67157 14 3.5 14H9V13H3.5C3.22386 13 3 12.7761 3 12.5V7.5C3 7.22386 3.22386 7 3.5 7H9.5C9.77614 7 10 7.22386 10 7.5V11C10 10.2044 10.3161 9.44129 10.8787 8.87868C10.9182 8.83921 10.9586 8.80095 11 8.76393Z" fill="#006CBF"/>
<path d="M11 12V11C11 9.89543 11.8954 9 13 9C14.1046 9 15 9.89543 15 11V12C15.5523 12 16 12.4477 16 13V15C16 15.5523 15.5523 16 15 16H11C10.4477 16 10 15.5523 10 15V13C10 12.4477 10.4477 12 11 12ZM12 11V12H14V11C14 10.4477 13.5523 10 13 10C12.4477 10 12 10.4477 12 11Z" fill="#202020"/>
</svg>
